<svg xmlns="http://www.w3.org/2000/svg" version="1.1" xmlns:xlink="http://www.w3.org/1999/xlink" xmlns:svgjs="http://svgjs.dev/svgjs" width="1440" height="560" preserveAspectRatio="none" viewBox="0 0 1440 560">
    <g mask="url(&quot;#SvgjsMask3010&quot;)" fill="none">
        <rect width="1440" height="560" x="0" y="0" fill="url(&quot;#SvgjsLinearGradient3011&quot;)"></rect>
        <path d="M1440 0L888.16 0L1440 167.19z" fill="rgba(255, 255, 255, .1)"></path>
        <path d="M888.16 0L1440 167.19L1440 200.59L835.16 0z" fill="rgba(255, 255, 255, .075)"></path>
        <path d="M835.16 0L1440 200.59L1440 342.12L678.0799999999999 0z" fill="rgba(255, 255, 255, .05)"></path>
        <path d="M678.0799999999999 0L1440 342.12L1440 429.46000000000004L348.4199999999999 0z" fill="rgba(255, 255, 255, .025)"></path>
        <path d="M0 560L310.63 560L0 532.72z" fill="rgba(0, 0, 0, .1)"></path>
        <path d="M0 532.72L310.63 560L571.9200000000001 560L0 333.62z" fill="rgba(0, 0, 0, .075)"></path>
        <path d="M0 333.62L571.9200000000001 560L572.19 560L0 240.07999999999998z" fill="rgba(0, 0, 0, .05)"></path>
        <path d="M0 240.07999999999998L572.19 560L824.1 560L0 140.42999999999998z" fill="rgba(0, 0, 0, .025)"></path>
    </g>
    <defs>
        <mask id="SvgjsMask3010">
            <rect width="1440" height="560" fill="#ffffff"></rect>
        </mask>
        <linearGradient x1="84.72%" y1="139.29%" x2="15.28%" y2="-39.29%" gradientUnits="userSpaceOnUse" id="SvgjsLinearGradient3011">
            <stop stop-color="rgba(14, 42, 71, 1)" offset="0"></stop>
            <stop stop-color="rgba(226, 232, 241, 1)" offset="0"></stop>
        </linearGradient>
    </defs>
</svg>