<svg xmlns="http://www.w3.org/2000/svg" version="1.1" xmlns:xlink="http://www.w3.org/1999/xlink" xmlns:svgjs="http://svgjs.dev/svgjs" width="1440" height="560" preserveAspectRatio="none" viewBox="0 0 1440 560">
    <g mask="url(&quot;#SvgjsMask1168&quot;)" fill="none">
        <rect width="1440" height="560" x="0" y="0" fill="rgba(212, 212, 216, 1)"></rect>
        <path d="M0,507.645C98.766,506.484,200.18,494.137,282.059,438.893C363.074,384.232,394.213,286.048,448.692,204.911C515.479,105.443,651.32,27.324,638.381,-91.785C625.531,-210.071,484.855,-266.226,389.746,-337.717C312.5,-395.781,231.106,-444.277,137.5,-468.284C46.369,-491.656,-46.128,-488.475,-138.979,-473.318C-243.05,-456.33,-364.13,-455.048,-432.961,-375.163C-501.778,-295.294,-464.991,-173.156,-486.531,-69.953C-509.979,42.392,-606.673,151.103,-565.132,258.087C-523.759,364.638,-390.916,399.404,-286.355,445.577C-195.164,485.846,-99.68,508.817,0,507.645" fill="#c7c7cc"></path>
        <path d="M1440 1078.481C1538.818 1071.001 1627.715 1033.001 1718.625 993.549 1826.85 946.5830000000001 1976.7060000000001 934.73 2022.138 825.8530000000001 2067.843 716.321 1955.888 605.279 1928.862 489.712 1904.88 387.16200000000003 1939.738 266.302 1872.356 185.361 1804.805 104.21699999999998 1680.6399999999999 113.42200000000003 1582.725 73.923 1471.299 28.974000000000046 1368.989-106.66300000000001 1257.123-62.821000000000026 1142.056-17.725000000000023 1164.992 159.84199999999998 1098.189 263.819 1044.577 347.264 936.831 388.902 906.277 483.262 873.58 584.24 886.179 696.333 926.324 794.588 967.393 895.106 1037.847 985.361 1132.883 1037.884 1225.13 1088.866 1334.903 1086.4360000000001 1440 1078.481" fill="#e2e2e4"></path>
    </g>
    <defs>
        <mask id="SvgjsMask1168">
            <rect width="1440" height="560" fill="#ffffff"></rect>
        </mask>
    </defs>
</svg>