<svg xmlns="http://www.w3.org/2000/svg" version="1.1" xmlns:xlink="http://www.w3.org/1999/xlink" xmlns:svgjs="http://svgjs.dev/svgjs" width="1440" height="560" preserveAspectRatio="none" viewBox="0 0 1440 560">
    <g mask="url(&quot;#SvgjsMask1181&quot;)" fill="none">
        <rect width="1440" height="560" x="0" y="0" fill="rgba(212, 212, 216, 1)"></rect>
        <path d="M0,414.199C92.215,419.054,184.782,454.429,271.301,422.153C366.738,386.549,458.306,321.27,499.189,227.972C539.914,135.035,498.044,30.847,486.968,-70.015C475.459,-174.816,493.622,-288.929,432.956,-375.158C370.405,-464.067,266.58,-535.426,157.897,-537.749C52.245,-540.007,-18.456,-432.856,-113.586,-386.838C-188.776,-350.466,-286.931,-359.146,-341.695,-296.08C-396.471,-233,-390.112,-140.456,-399.609,-57.455C-408.832,23.147,-421.229,103.779,-396.281,180.976C-369.408,264.131,-328.858,350.198,-253.544,394.522C-178.978,438.406,-86.401,409.65,0,414.199" fill="#c7c7cc"></path>
        <path d="M1440 936.846C1509.219 932.706 1558.034 869.685 1608.373 821.9929999999999 1650.752 781.843 1675.757 730.975 1708.3890000000001 682.569 1748.47 623.114 1819.7069999999999 576.74 1822.02 505.074 1824.365 432.413 1775.096 364.861 1720.181 317.221 1668.619 272.49 1595.594 272.354 1530.409 252.094 1463.952 231.438 1402.541 188.95299999999997 1333.416 197.01 1258.95 205.69 1173.4850000000001 232.11599999999999 1137.509 297.89 1101.215 364.247 1160.762 443.782 1157.121 519.328 1153.978 584.54 1098.325 644.83 1117.784 707.1510000000001 1137.589 770.58 1204.059 804.365 1258.167 842.937 1314.863 883.3530000000001 1370.497 941.0029999999999 1440 936.846" fill="#e2e2e4"></path>
    </g>
    <defs>
        <mask id="SvgjsMask1181">
            <rect width="1440" height="560" fill="#ffffff"></rect>
        </mask>
    </defs>
</svg>