<svg xmlns="http://www.w3.org/2000/svg" version="1.1" xmlns:xlink="http://www.w3.org/1999/xlink" xmlns:svgjs="http://svgjs.dev/svgjs" width="2000" height="592" viewBox="0 0 2000 592"><g transform="matrix(1,0,0,1,0.213333333333253,-1.0040283203125)"><svg viewBox="0 0 375 111" data-background-color="#ffffff" preserveAspectRatio="xMidYMid meet" height="592" width="2000" xmlns="http://www.w3.org/2000/svg" xmlns:xlink="http://www.w3.org/1999/xlink"><g id="tight-bounds" transform="matrix(1,0,0,1,-0.03976036071776434,0.18825531005859375)"><svg viewBox="0 0 375.07952880859375 110.62348937988281" height="110.62348937988281" width="375.07952880859375"><g><svg></svg></g><g><svg viewBox="0 0 375.07952880859375 110.62348937988281" height="110.62348937988281" width="375.07952880859375"><g transform="matrix(1,0,0,1,-10.220239639282227,-71.39682006835938)"><path xmlns="http://www.w3.org/2000/svg" d="M10.22 175.803v-104.406h375.08v104.406l-117.013 0 0-3.512h113.501v-97.382h-368.055v97.382h113.5l0 3.512z" fill="#ff851b" fill-rule="nonzero" stroke="none" stroke-width="1" stroke-linecap="butt" stroke-linejoin="miter" stroke-miterlimit="10" stroke-dasharray="" stroke-dashoffset="0" font-family="none" font-weight="none" font-size="none" text-anchor="none" style="mix-blend-mode: normal" data-fill-palette-color="tertiary"></path><g><path xmlns="http://www.w3.org/2000/svg" d="M142.67 175.824l1.146-2.89c0.288-0.709 0.358-1.194 0.209-1.455-0.151-0.259-0.47-0.433-0.956-0.522v0c-0.044-0.122-0.074-0.241-0.09-0.358-0.018-0.115-0.027-0.234-0.027-0.356v0c0.255 0.011 0.515 0.019 0.781 0.023 0.266 0.007 0.554 0.01 0.864 0.01v0c0.31 0 0.604-0.003 0.88-0.01 0.277-0.004 0.537-0.012 0.781-0.023v0c0 0.111-0.002 0.227-0.007 0.349-0.007 0.122-0.038 0.244-0.093 0.365v0c-0.199 0.044-0.368 0.122-0.505 0.233-0.14 0.111-0.27 0.282-0.392 0.515-0.122 0.233-0.271 0.559-0.448 0.98v0l-2.442 5.814c-0.31 0.753-0.589 1.362-0.837 1.827-0.25 0.465-0.483 0.819-0.698 1.063-0.217 0.244-0.433 0.41-0.648 0.498-0.217 0.089-0.453 0.133-0.707 0.133v0c-0.332 0-0.595-0.044-0.788-0.133-0.195-0.089-0.348-0.172-0.458-0.249v0c-0.044-0.166-0.061-0.373-0.05-0.621 0.011-0.25 0.033-0.447 0.067-0.591v0c0.188 0.033 0.371 0.059 0.548 0.076 0.177 0.015 0.349 0.023 0.515 0.023v0c0.321 0 0.629-0.078 0.923-0.232 0.292-0.155 0.544-0.404 0.754-0.748v0c0.155-0.233 0.388-0.689 0.698-1.368 0.31-0.682 0.637-1.466 0.98-2.353zM142.62 176.472l-0.747 1.761c-0.266-0.587-0.545-1.205-0.837-1.854-0.295-0.647-0.575-1.269-0.841-1.867-0.266-0.598-0.498-1.102-0.698-1.511v0c-0.255-0.554-0.467-0.969-0.638-1.246-0.173-0.277-0.333-0.471-0.481-0.582-0.151-0.111-0.32-0.183-0.509-0.216v0c-0.033-0.1-0.058-0.21-0.073-0.332-0.018-0.122-0.027-0.249-0.026-0.382v0c0.321 0.011 0.642 0.019 0.963 0.023 0.321 0.007 0.626 0.01 0.914 0.01v0c0.288 0 0.642-0.003 1.063-0.01 0.421-0.004 0.803-0.012 1.146-0.023v0c0 0.144-0.008 0.274-0.023 0.389-0.018 0.117-0.049 0.226-0.093 0.325v0c-0.598 0.1-0.941 0.274-1.03 0.522-0.089 0.25 0.017 0.685 0.316 1.306v0c0.155 0.321 0.332 0.705 0.531 1.152 0.199 0.45 0.393 0.898 0.581 1.346 0.188 0.45 0.349 0.846 0.482 1.189zM150.926 178.034v0c-0.753 0-1.412-0.164-1.977-0.492-0.565-0.326-1.002-0.785-1.312-1.379-0.31-0.591-0.465-1.286-0.465-2.083v0c0-0.753 0.161-1.429 0.481-2.026 0.321-0.598 0.764-1.069 1.329-1.412 0.565-0.343 1.213-0.515 1.944-0.515v0c0.786 0 1.458 0.166 2.016 0.498 0.56 0.332 0.99 0.794 1.289 1.386 0.299 0.594 0.448 1.283 0.449 2.069v0c0 0.753-0.157 1.429-0.472 2.027-0.317 0.598-0.754 1.069-1.312 1.412-0.56 0.343-1.217 0.515-1.97 0.515zM151.059 177.236v0c0.664 0 1.157-0.274 1.478-0.82 0.321-0.549 0.482-1.261 0.482-2.136v0c0-0.687-0.102-1.282-0.306-1.788-0.206-0.503-0.481-0.89-0.824-1.162-0.343-0.27-0.72-0.405-1.129-0.406v0c-0.642 0-1.122 0.26-1.439 0.781-0.315 0.52-0.472 1.196-0.472 2.026v0c0 0.742 0.091 1.375 0.273 1.901 0.184 0.527 0.442 0.926 0.774 1.196 0.332 0.272 0.72 0.409 1.163 0.408zM159.082 177.951v0c-0.742 0-1.323-0.216-1.745-0.648-0.421-0.432-0.631-1.202-0.631-2.309v0-2.508c0-0.388-0.055-0.679-0.166-0.874-0.111-0.193-0.421-0.295-0.93-0.306v0c0-0.122 0.009-0.23 0.026-0.325 0.015-0.093 0.045-0.189 0.09-0.289v0c0.343-0.022 0.718-0.089 1.123-0.2 0.403-0.111 0.732-0.233 0.987-0.365v0c0.1 0.033 0.186 0.102 0.259 0.206 0.071 0.106 0.106 0.281 0.106 0.525v0 3.77c0 0.742 0.103 1.312 0.309 1.711 0.204 0.399 0.56 0.598 1.07 0.598v0c0.554 0 1.017-0.233 1.389-0.697 0.37-0.465 0.555-1.179 0.554-2.143v0-1.694c0-0.388-0.069-0.679-0.206-0.874-0.14-0.193-0.486-0.295-1.039-0.306v0c0-0.122 0.006-0.23 0.016-0.325 0.011-0.093 0.044-0.189 0.1-0.289v0c0.432-0.022 0.856-0.081 1.272-0.176 0.414-0.093 0.743-0.195 0.987-0.306v0c0.1 0.033 0.186 0.102 0.259 0.206 0.071 0.106 0.106 0.281 0.106 0.525v0 4.817l-1.295 0.615c-0.055 0.144-0.133 0.285-0.233 0.421-0.1 0.14-0.21 0.27-0.332 0.392v0c-0.288 0.288-0.592 0.501-0.914 0.638-0.321 0.14-0.709 0.209-1.162 0.21zM162.055 178.034v0c-0.111-0.055-0.207-0.136-0.289-0.243-0.084-0.104-0.126-0.344-0.126-0.721v0c0-0.122 0.009-0.293 0.026-0.515 0.015-0.221 0.062-0.532 0.14-0.93v0h1.212c0 0.255 0.022 0.467 0.067 0.638 0.044 0.173 0.142 0.298 0.292 0.375 0.148 0.078 0.372 0.116 0.671 0.117v0c0 0.111-0.006 0.236-0.016 0.375-0.011 0.137-0.039 0.267-0.083 0.389v0c-0.277 0.011-0.598 0.063-0.964 0.156-0.365 0.095-0.676 0.215-0.93 0.359zM171.374 174.114v1.328c0 0.476 0.05 0.838 0.149 1.087 0.1 0.25 0.26 0.422 0.482 0.515 0.221 0.095 0.504 0.154 0.847 0.176v0c0.033 0.089 0.055 0.192 0.066 0.309 0.011 0.115 0.017 0.25 0.017 0.405v0c-0.166-0.011-0.362-0.019-0.588-0.023-0.228-0.007-0.47-0.012-0.724-0.017-0.255-0.007-0.515-0.01-0.781-0.01v0c-0.388 0-0.794 0.003-1.219 0.01-0.427 0.004-0.752 0.018-0.974 0.04v0c0-0.155 0.006-0.29 0.017-0.405 0.011-0.117 0.033-0.22 0.066-0.309v0c0.299-0.022 0.532-0.075 0.698-0.16 0.166-0.082 0.282-0.226 0.349-0.432 0.066-0.204 0.1-0.488 0.1-0.853v0-1.661zM171.091 172.785l0.283 0.232v1.312h-1.495v-1.843l1.495-1.628c0 0.377-0.033 0.718-0.1 1.023-0.066 0.303-0.127 0.605-0.183 0.904zM171.374 173.848l-0.366-0.964c0.122-0.31 0.216-0.565 0.283-0.764 0.066-0.199 0.138-0.365 0.216-0.498v0c0.244-0.388 0.532-0.709 0.863-0.964 0.332-0.255 0.714-0.382 1.146-0.382v0c0.421 0 0.803 0.133 1.147 0.399v0c-0.022 0.177-0.044 0.382-0.067 0.615-0.022 0.233-0.035 0.465-0.04 0.697-0.007 0.233-0.01 0.448-0.01 0.648v0c-0.1 0.033-0.235 0.066-0.405 0.1-0.173 0.033-0.353 0.05-0.542 0.05v0c-0.022-0.532-0.107-0.88-0.255-1.047-0.151-0.166-0.337-0.249-0.558-0.249v0c-0.188 0-0.393 0.107-0.615 0.322-0.221 0.217-0.41 0.503-0.565 0.857-0.155 0.354-0.233 0.747-0.232 1.18zM171.374 170.858l-1.495 3.471v-1.843c0-0.266-0.028-0.482-0.083-0.648-0.055-0.166-0.172-0.293-0.349-0.382-0.177-0.089-0.448-0.138-0.814-0.15v0c0-0.122 0.011-0.233 0.033-0.332 0.022-0.1 0.061-0.194 0.116-0.282v0c0.343-0.022 0.736-0.089 1.18-0.2 0.443-0.111 0.792-0.233 1.046-0.365v0c0.1 0.033 0.186 0.102 0.259 0.206 0.071 0.106 0.106 0.281 0.107 0.525zM179.181 178.034v0c-0.786 0-1.44-0.177-1.96-0.532-0.52-0.354-0.91-0.834-1.17-1.438-0.261-0.602-0.392-1.264-0.392-1.984v0c0-0.709 0.138-1.362 0.415-1.96 0.277-0.598 0.673-1.08 1.19-1.445 0.514-0.365 1.125-0.548 1.834-0.548v0c0.72 0 1.299 0.155 1.737 0.465 0.436 0.31 0.763 0.725 0.98 1.246 0.215 0.52 0.344 1.096 0.389 1.727v0c-0.044 0.221-0.127 0.41-0.249 0.565v0c-0.188 0-0.471 0-0.847 0-0.377 0-0.803 0.002-1.279 0.007-0.476 0.007-0.963 0.018-1.462 0.033-0.498 0.018-0.969 0.038-1.412 0.06v0-0.847h3.521c0-0.731-0.133-1.323-0.398-1.778-0.266-0.454-0.642-0.681-1.13-0.681v0c-0.266 0-0.526 0.08-0.781 0.239-0.255 0.162-0.465 0.444-0.631 0.848-0.166 0.405-0.249 0.979-0.249 1.72v0c0 0.543 0.07 1.071 0.209 1.585 0.137 0.516 0.381 0.942 0.731 1.279 0.348 0.339 0.843 0.508 1.485 0.508v0c0.365 0 0.725-0.083 1.08-0.249 0.354-0.166 0.67-0.404 0.947-0.714v0c0.089 0.044 0.175 0.118 0.259 0.223 0.082 0.106 0.128 0.204 0.139 0.292v0c-0.377 0.498-0.811 0.853-1.302 1.063-0.494 0.21-1.045 0.316-1.654 0.316zM188.566 178.034v0c-0.122-0.055-0.218-0.155-0.289-0.299-0.073-0.144-0.11-0.371-0.11-0.681v0c0-0.1 0.006-0.219 0.017-0.359 0.011-0.137 0.033-0.261 0.066-0.372v0h0.033c-0.033 0.177-0.107 0.368-0.222 0.571-0.117 0.206-0.27 0.386-0.459 0.542v0c-0.188 0.166-0.426 0.301-0.714 0.405-0.288 0.106-0.637 0.159-1.046 0.159v0c-0.698 0-1.229-0.157-1.595-0.471-0.365-0.317-0.548-0.746-0.548-1.289v0c0-0.432 0.103-0.801 0.309-1.107 0.204-0.303 0.468-0.558 0.794-0.764 0.328-0.204 0.683-0.367 1.066-0.488 0.381-0.122 0.754-0.216 1.12-0.282 0.365-0.066 0.687-0.122 0.963-0.167v0c0-0.454-0.009-0.808-0.026-1.063-0.015-0.255-0.048-0.457-0.097-0.608-0.051-0.148-0.126-0.278-0.226-0.388v0c-0.133-0.166-0.285-0.291-0.455-0.376-0.173-0.082-0.364-0.123-0.574-0.123v0c-0.365 0-0.653 0.113-0.864 0.339-0.21 0.228-0.36 0.492-0.449 0.791-0.089 0.299-0.138 0.565-0.149 0.797v0c-0.122 0-0.274-0.009-0.455-0.026-0.184-0.015-0.32-0.045-0.409-0.09v0c0.022-0.277 0.028-0.587 0.017-0.93-0.011-0.343-0.044-0.637-0.1-0.881v0c0.454-0.233 0.932-0.415 1.435-0.548 0.505-0.133 0.968-0.199 1.389-0.199v0c0.41 0 0.761 0.058 1.053 0.173 0.295 0.117 0.53 0.27 0.708 0.458v0c0.288 0.277 0.476 0.639 0.564 1.086 0.089 0.45 0.133 1.045 0.133 1.788v0 1.827c0 0.31 0.025 0.556 0.077 0.737 0.049 0.184 0.145 0.317 0.289 0.399 0.144 0.084 0.365 0.137 0.664 0.16v0c0 0.111-0.006 0.236-0.017 0.375-0.011 0.137-0.039 0.267-0.083 0.389v0c-0.277 0.011-0.585 0.063-0.923 0.156-0.337 0.095-0.632 0.215-0.887 0.359zM186.307 177.087v0c0.244 0 0.493-0.081 0.747-0.243 0.255-0.159 0.468-0.411 0.641-0.754 0.171-0.343 0.256-0.792 0.256-1.345v0-0.631c-0.277 0.033-0.57 0.08-0.88 0.139-0.31 0.062-0.598 0.154-0.864 0.276-0.266 0.122-0.482 0.29-0.648 0.505-0.166 0.217-0.249 0.508-0.249 0.873v0c0 0.41 0.1 0.709 0.299 0.897 0.199 0.188 0.432 0.282 0.698 0.283zM195.941 170.127v0c0.321 0 0.601 0.028 0.841 0.083 0.237 0.055 0.494 0.127 0.77 0.216v0 1.279c-0.221-0.233-0.462-0.426-0.721-0.581-0.261-0.155-0.586-0.233-0.973-0.233v0c-0.233 0-0.484 0.047-0.754 0.14-0.272 0.095-0.536 0.259-0.791 0.491-0.255 0.233-0.462 0.559-0.621 0.98-0.162 0.421-0.243 0.963-0.243 1.628v0c0 0.709 0.105 1.27 0.316 1.684 0.21 0.416 0.46 0.715 0.748 0.897 0.288 0.184 0.554 0.276 0.797 0.276v0c0.332 0 0.651-0.103 0.957-0.309 0.303-0.204 0.555-0.538 0.754-1.003 0.199-0.465 0.299-1.085 0.299-1.86v0l0.482 1.76c-0.144 0.354-0.268 0.626-0.373 0.814-0.106 0.188-0.187 0.327-0.242 0.415v0c-0.1 0.166-0.257 0.343-0.472 0.532-0.217 0.188-0.477 0.351-0.781 0.488-0.306 0.14-0.647 0.209-1.023 0.21v0c-0.642 0-1.196-0.131-1.661-0.392-0.465-0.259-0.822-0.66-1.07-1.203-0.25-0.543-0.375-1.24-0.375-2.093v0c0-0.775 0.172-1.482 0.515-2.12 0.343-0.636 0.825-1.145 1.445-1.528 0.62-0.381 1.345-0.571 2.176-0.571zM197.669 175.625h1.146c0 0.255 0.022 0.467 0.066 0.638 0.044 0.173 0.142 0.298 0.293 0.375 0.148 0.078 0.372 0.116 0.671 0.117v0c0 0.111-0.006 0.236-0.017 0.375-0.011 0.137-0.039 0.267-0.083 0.389v0c-0.277 0.011-0.598 0.063-0.963 0.156-0.365 0.095-0.676 0.215-0.931 0.359v0c-0.111-0.055-0.207-0.136-0.289-0.243-0.084-0.104-0.126-0.344-0.126-0.721v0c0-0.221 0.02-0.419 0.06-0.591 0.038-0.171 0.095-0.455 0.173-0.854zM197.32 168.333h1.495v7.442h-1.495zM198.449 165.974v0c0.1 0.033 0.186 0.1 0.259 0.2 0.071 0.1 0.106 0.255 0.107 0.465v0 2.309h-1.495v-0.615c0-0.266-0.024-0.485-0.073-0.658-0.051-0.171-0.165-0.3-0.342-0.389-0.177-0.089-0.454-0.133-0.831-0.132v0c0-0.122 0.011-0.233 0.033-0.333 0.022-0.1 0.061-0.194 0.116-0.282v0c0.166 0 0.399-0.028 0.698-0.083 0.299-0.055 0.596-0.127 0.89-0.216 0.292-0.089 0.505-0.177 0.638-0.266zM207.403 178.034v0c-0.188-0.532-0.373-1.055-0.555-1.572-0.184-0.514-0.372-1.023-0.565-1.528-0.195-0.503-0.389-1.003-0.581-1.502-0.195-0.498-0.392-0.997-0.592-1.495v0c-0.122-0.31-0.246-0.532-0.372-0.664-0.128-0.133-0.315-0.238-0.558-0.316v0c-0.044-0.111-0.072-0.233-0.083-0.365-0.011-0.133-0.017-0.249-0.017-0.349v0c0.221 0.011 0.457 0.019 0.708 0.023 0.248 0.007 0.555 0.01 0.92 0.01v0c0.365 0 0.692-0.006 0.98-0.016 0.288-0.011 0.57-0.022 0.847-0.033v0c0 0.111-0.006 0.238-0.016 0.382-0.011 0.144-0.033 0.26-0.067 0.348v0c-0.31 0.033-0.528 0.089-0.654 0.167-0.128 0.078-0.189 0.183-0.183 0.315 0.004 0.133 0.045 0.305 0.123 0.515v0c0.255 0.642 0.52 1.345 0.797 2.11 0.277 0.764 0.526 1.473 0.748 2.126v0l-0.216 0.016 2.292-5.93c0.089-0.022 0.194-0.039 0.316-0.049 0.122-0.011 0.238-0.017 0.349-0.017v0c0.365 0.842 0.767 1.794 1.206 2.857 0.436 1.063 0.859 2.121 1.269 3.173v0h-0.233l1.047-3.14c0.177-0.543 0.258-0.961 0.242-1.256-0.018-0.292-0.104-0.505-0.259-0.637-0.155-0.133-0.371-0.216-0.648-0.25v0c-0.044-0.122-0.08-0.247-0.106-0.375-0.029-0.126-0.043-0.245-0.043-0.355v0c0.21 0.011 0.448 0.022 0.714 0.033 0.266 0.011 0.52 0.017 0.764 0.016v0c0.299 0 0.57-0.006 0.814-0.016 0.244-0.011 0.46-0.022 0.648-0.033v0c0 0.144-0.008 0.271-0.023 0.382-0.018 0.111-0.054 0.227-0.11 0.348v0c-0.166 0.044-0.307 0.124-0.422 0.24-0.117 0.117-0.234 0.32-0.349 0.608-0.117 0.288-0.27 0.703-0.458 1.245v0l-1.678 4.834c-0.066 0.033-0.138 0.061-0.216 0.083-0.078 0.022-0.161 0.039-0.249 0.05-0.089 0.011-0.188 0.017-0.299 0.017v0c-0.255-0.664-0.528-1.349-0.821-2.053-0.295-0.702-0.586-1.396-0.873-2.083-0.288-0.687-0.57-1.334-0.847-1.944v0l0.515-0.282-2.476 6.212c-0.055 0.033-0.116 0.061-0.182 0.083-0.066 0.022-0.144 0.039-0.233 0.05-0.089 0.011-0.194 0.017-0.315 0.017zM220.874 178.034v0c-0.786 0-1.44-0.177-1.96-0.532-0.52-0.354-0.91-0.834-1.169-1.438-0.261-0.602-0.392-1.264-0.392-1.984v0c0-0.709 0.138-1.362 0.415-1.96 0.277-0.598 0.673-1.08 1.189-1.445 0.514-0.365 1.125-0.548 1.834-0.548v0c0.72 0 1.299 0.155 1.737 0.465 0.436 0.31 0.762 0.725 0.977 1.246 0.217 0.52 0.348 1.096 0.392 1.727v0c-0.044 0.221-0.127 0.41-0.249 0.565v0c-0.188 0-0.471 0-0.847 0-0.377 0-0.803 0.002-1.279 0.007-0.476 0.007-0.963 0.018-1.462 0.033-0.498 0.018-0.969 0.038-1.412 0.06v0-0.847h3.522c0-0.731-0.133-1.323-0.399-1.778-0.266-0.454-0.642-0.681-1.13-0.681v0c-0.266 0-0.526 0.08-0.78 0.239-0.255 0.162-0.465 0.444-0.631 0.848-0.166 0.405-0.249 0.979-0.25 1.72v0c0 0.543 0.07 1.071 0.21 1.585 0.137 0.516 0.381 0.942 0.731 1.279 0.348 0.339 0.843 0.508 1.485 0.508v0c0.365 0 0.725-0.083 1.079-0.249 0.354-0.166 0.67-0.404 0.947-0.714v0c0.089 0.044 0.175 0.118 0.259 0.223 0.082 0.106 0.128 0.204 0.14 0.292v0c-0.377 0.498-0.811 0.853-1.302 1.063-0.494 0.21-1.045 0.316-1.655 0.316zM234.727 176.589v0c-0.299 0.476-0.67 0.836-1.112 1.079-0.443 0.244-0.98 0.365-1.612 0.366v0c-0.565 0-1.11-0.147-1.634-0.442-0.527-0.292-0.962-0.73-1.306-1.312-0.343-0.58-0.515-1.302-0.515-2.166v0c0-0.664 0.133-1.301 0.399-1.911 0.266-0.609 0.657-1.107 1.173-1.495 0.514-0.388 1.142-0.581 1.883-0.581v0c0.509 0 0.978 0.061 1.406 0.183 0.425 0.122 0.793 0.31 1.103 0.564v0c-0.044 0.321-0.074 0.637-0.09 0.947-0.018 0.31-0.027 0.626-0.027 0.947v0c-0.089 0.044-0.208 0.078-0.359 0.1-0.148 0.022-0.283 0.033-0.405 0.033v0c-0.066-0.642-0.255-1.135-0.565-1.478-0.31-0.343-0.709-0.515-1.196-0.515v0c-0.543 0-0.975 0.255-1.295 0.764-0.321 0.509-0.482 1.24-0.482 2.192v0c0 0.554 0.092 1.076 0.276 1.568 0.182 0.494 0.45 0.893 0.804 1.196 0.354 0.306 0.786 0.458 1.295 0.459v0c0.354 0 0.689-0.083 1.004-0.249 0.317-0.166 0.597-0.404 0.84-0.715v0c0.089 0.044 0.172 0.107 0.249 0.19 0.078 0.084 0.133 0.176 0.166 0.276zM241.006 178.034v0c-0.122-0.055-0.218-0.155-0.289-0.299-0.073-0.144-0.11-0.371-0.109-0.681v0c0-0.1 0.006-0.219 0.016-0.359 0.011-0.137 0.033-0.261 0.067-0.372v0h0.033c-0.033 0.177-0.107 0.368-0.223 0.571-0.117 0.206-0.27 0.386-0.458 0.542v0c-0.188 0.166-0.426 0.301-0.714 0.405-0.288 0.106-0.637 0.159-1.047 0.159v0c-0.698 0-1.229-0.157-1.594-0.471-0.365-0.317-0.548-0.746-0.549-1.289v0c0-0.432 0.103-0.801 0.309-1.107 0.204-0.303 0.47-0.558 0.798-0.764 0.326-0.204 0.68-0.367 1.063-0.488 0.381-0.122 0.754-0.216 1.119-0.282 0.365-0.066 0.687-0.122 0.964-0.167v0c0-0.454-0.008-0.808-0.023-1.063-0.018-0.255-0.051-0.457-0.1-0.608-0.051-0.148-0.126-0.278-0.226-0.388v0c-0.133-0.166-0.285-0.291-0.455-0.376-0.173-0.082-0.364-0.123-0.575-0.123v0c-0.365 0-0.653 0.113-0.864 0.339-0.21 0.228-0.36 0.492-0.448 0.791-0.089 0.299-0.138 0.565-0.15 0.797v0c-0.122 0-0.274-0.009-0.455-0.026-0.184-0.015-0.32-0.045-0.408-0.09v0c0.022-0.277 0.028-0.587 0.016-0.93-0.011-0.343-0.044-0.637-0.1-0.881v0c0.454-0.233 0.934-0.415 1.439-0.548 0.503-0.133 0.965-0.199 1.385-0.199v0c0.41 0 0.762 0.058 1.057 0.173 0.292 0.117 0.527 0.27 0.704 0.458v0c0.288 0.277 0.476 0.639 0.565 1.086 0.089 0.45 0.133 1.045 0.133 1.788v0 1.827c0 0.31 0.025 0.556 0.076 0.737 0.049 0.184 0.145 0.317 0.289 0.399 0.144 0.084 0.365 0.137 0.665 0.16v0c0 0.111-0.006 0.236-0.017 0.375-0.011 0.137-0.039 0.267-0.083 0.389v0c-0.277 0.011-0.584 0.063-0.92 0.156-0.339 0.095-0.636 0.215-0.891 0.359zM238.747 177.087v0c0.244 0 0.493-0.081 0.748-0.243 0.255-0.159 0.468-0.411 0.641-0.754 0.171-0.343 0.256-0.792 0.256-1.345v0-0.631c-0.277 0.033-0.57 0.08-0.881 0.139-0.31 0.062-0.598 0.154-0.863 0.276-0.266 0.122-0.482 0.29-0.648 0.505-0.166 0.217-0.249 0.508-0.249 0.873v0c0 0.41 0.1 0.709 0.299 0.897 0.199 0.188 0.432 0.282 0.697 0.283zM246.92 174.114v1.328c0 0.476 0.05 0.838 0.149 1.087 0.1 0.25 0.26 0.422 0.482 0.515 0.221 0.095 0.504 0.154 0.847 0.176v0c0.033 0.089 0.055 0.192 0.067 0.309 0.011 0.115 0.017 0.25 0.016 0.405v0c-0.166-0.011-0.362-0.019-0.588-0.023-0.228-0.007-0.47-0.012-0.724-0.017-0.255-0.007-0.515-0.01-0.781-0.01v0c-0.388 0-0.795 0.003-1.222 0.01-0.425 0.004-0.749 0.018-0.97 0.04v0c0-0.155 0.006-0.29 0.016-0.405 0.011-0.117 0.033-0.22 0.067-0.309v0c0.299-0.022 0.532-0.075 0.697-0.16 0.166-0.082 0.282-0.226 0.349-0.432 0.066-0.204 0.1-0.488 0.1-0.853v0-1.661zM246.637 172.785l0.283 0.232v1.312h-1.495v-1.843l1.495-1.628c0 0.377-0.033 0.718-0.1 1.023-0.066 0.303-0.127 0.605-0.183 0.904zM246.92 173.848l-0.366-0.964c0.122-0.31 0.216-0.565 0.283-0.764 0.066-0.199 0.138-0.365 0.216-0.498v0c0.244-0.388 0.532-0.709 0.864-0.964 0.332-0.255 0.714-0.382 1.146-0.382v0c0.421 0 0.803 0.133 1.146 0.399v0c-0.022 0.177-0.044 0.382-0.067 0.615-0.022 0.233-0.035 0.465-0.039 0.697-0.007 0.233-0.01 0.448-0.01 0.648v0c-0.1 0.033-0.235 0.066-0.406 0.1-0.173 0.033-0.353 0.05-0.541 0.05v0c-0.022-0.532-0.107-0.88-0.256-1.047-0.151-0.166-0.337-0.249-0.558-0.249v0c-0.188 0-0.393 0.107-0.615 0.322-0.221 0.217-0.41 0.503-0.565 0.857-0.155 0.354-0.233 0.747-0.232 1.18zM246.92 170.858l-1.495 3.471v-1.843c0-0.266-0.028-0.482-0.083-0.648-0.055-0.166-0.172-0.293-0.349-0.382-0.177-0.089-0.448-0.138-0.814-0.15v0c0-0.122 0.011-0.233 0.033-0.332 0.022-0.1 0.061-0.194 0.117-0.282v0c0.343-0.022 0.736-0.089 1.179-0.2 0.443-0.111 0.792-0.233 1.046-0.365v0c0.1 0.033 0.186 0.102 0.26 0.206 0.071 0.106 0.106 0.281 0.106 0.525zM254.727 178.034v0c-0.786 0-1.44-0.177-1.96-0.532-0.52-0.354-0.91-0.834-1.17-1.438-0.261-0.602-0.392-1.264-0.392-1.984v0c0-0.709 0.138-1.362 0.416-1.96 0.277-0.598 0.672-1.08 1.186-1.445 0.516-0.365 1.128-0.548 1.837-0.548v0c0.72 0 1.298 0.155 1.734 0.465 0.439 0.31 0.765 0.725 0.98 1.246 0.217 0.52 0.348 1.096 0.392 1.727v0c-0.044 0.221-0.127 0.41-0.249 0.565v0c-0.188 0-0.471 0-0.847 0-0.377 0-0.803 0.002-1.279 0.007-0.476 0.007-0.963 0.018-1.462 0.033-0.498 0.018-0.969 0.038-1.412 0.06v0-0.847h3.522c0-0.731-0.133-1.323-0.399-1.778-0.266-0.454-0.642-0.681-1.13-0.681v0c-0.266 0-0.526 0.08-0.78 0.239-0.255 0.162-0.465 0.444-0.631 0.848-0.166 0.405-0.249 0.979-0.25 1.72v0c0 0.543 0.069 1.071 0.206 1.585 0.14 0.516 0.384 0.942 0.735 1.279 0.348 0.339 0.843 0.508 1.485 0.508v0c0.365 0 0.725-0.083 1.079-0.249 0.354-0.166 0.67-0.404 0.947-0.714v0c0.089 0.044 0.174 0.118 0.256 0.223 0.084 0.106 0.132 0.204 0.143 0.292v0c-0.377 0.498-0.812 0.853-1.306 1.063-0.492 0.21-1.042 0.316-1.651 0.316z" fill="#e8772e" fill-rule="nonzero" stroke="none" stroke-width="1" stroke-linecap="butt" stroke-linejoin="miter" stroke-miterlimit="10" stroke-dasharray="" stroke-dashoffset="0" font-family="none" font-weight="none" font-size="none" text-anchor="none" style="mix-blend-mode: normal" data-fill-palette-color="secondary"></path></g></g><g transform="matrix(1,0,0,1,29.331764404296877,35.838317149972355)"><svg viewBox="0 0 316.416 38.94685507993811" height="38.94685507993811" width="316.416"><g><svg viewBox="0 0 316.416 38.94685507993811" height="38.94685507993811" width="316.416"><g><svg viewBox="0 0 316.416 38.94685507993811" height="38.94685507993811" width="316.416"><g><svg viewBox="0 0 316.416 38.94685507993811" height="38.94685507993811" width="316.416"><g id="textblocktransform"><svg viewBox="0 0 316.416 38.94685507993811" height="38.94685507993811" width="316.416" id="textblock"><g><svg viewBox="0 0 316.416 38.94685507993811" height="38.94685507993811" width="316.416"><g transform="matrix(1,0,0,1,0,0)"><svg width="316.416" viewBox="2.4000000953674316 -35.349998474121094 290.82000732421875 35.79999923706055" height="38.94685507993811" data-palette-color="#ff851b"><path d="M28-5.95L28-1.7Q24.9 0.4 19.5 0.4L19.5 0.4Q11.9 0.4 7.15-4.28 2.4-8.95 2.4-17L2.4-17Q2.4-24.6 7.23-29.38 12.05-34.15 19.35-34.15L19.35-34.15Q24.6-34.15 27.9-32.35L27.9-32.35 27.9-28.2Q25.7-29.35 23.95-29.85 22.2-30.35 19.35-30.35L19.35-30.35Q13.9-30.35 10.28-26.65 6.65-22.95 6.65-17L6.65-17Q6.65-10.8 10.25-7.1 13.85-3.4 19.8-3.4L19.8-3.4Q24.6-3.4 28-5.95L28-5.95ZM53.75-17.35L53.75 0 49.8 0 49.8-16.4Q49.8-19.15 48.37-20.65 46.95-22.15 44.65-22.15L44.65-22.15Q41.85-22.15 39.75-20 37.65-17.85 37.65-13.85L37.65-13.85 37.65 0 33.75 0 33.75-35.35 37.65-35.35 37.65-20.95Q39.9-25.7 45.65-25.7L45.65-25.7Q49.3-25.7 51.52-23.45 53.75-21.2 53.75-17.35L53.75-17.35ZM64.64-13.85L64.64 0 60.7 0 60.74-25.35 64.64-25.35 64.64-20.9Q66.64-25.6 71.55-25.6L71.55-25.6Q72.44-25.6 72.94-25.5L72.94-25.5 72.94-21.6Q71.89-21.95 70.8-21.95L70.8-21.95Q68.14-21.95 66.39-19.5 64.64-17.05 64.64-13.85L64.64-13.85ZM99.34-12.6L99.34-12.6Q99.34-6.95 96.14-3.25 92.94 0.45 87.34 0.45L87.34 0.45Q81.89 0.45 78.72-3.23 75.54-6.9 75.54-12.5L75.54-12.5Q75.54-18.15 78.82-21.93 82.09-25.7 87.34-25.7L87.34-25.7Q93.09-25.7 96.22-22 99.34-18.3 99.34-12.6ZM79.64-12.55L79.64-12.55Q79.64-8.6 81.74-5.83 83.84-3.05 87.34-3.05L87.34-3.05Q91.14-3.05 93.19-5.78 95.24-8.5 95.24-12.55L95.24-12.55Q95.24-16.75 93.29-19.48 91.34-22.2 87.34-22.2L87.34-22.2Q83.74-22.2 81.69-19.4 79.64-16.6 79.64-12.55ZM125.14-17.45L125.14 0 121.19 0 121.19-16.4Q121.19-19.2 119.77-20.68 118.34-22.15 116.04-22.15L116.04-22.15Q113.19-22.15 111.12-19.95 109.04-17.75 109.04-13.85L109.04-13.85 109.04 0 105.14 0 105.14-25.35 109.04-25.35 109.04-20.95Q111.29-25.7 117.04-25.7L117.04-25.7Q120.74-25.7 122.94-23.45 125.14-21.2 125.14-17.45L125.14-17.45ZM154.44-12.6L154.44-12.6Q154.44-6.95 151.24-3.25 148.04 0.45 142.44 0.45L142.44 0.45Q136.99 0.45 133.81-3.23 130.64-6.9 130.64-12.5L130.64-12.5Q130.64-18.15 133.91-21.93 137.19-25.7 142.44-25.7L142.44-25.7Q148.19-25.7 151.31-22 154.44-18.3 154.44-12.6ZM134.74-12.55L134.74-12.55Q134.74-8.6 136.84-5.83 138.94-3.05 142.44-3.05L142.44-3.05Q146.24-3.05 148.29-5.78 150.34-8.5 150.34-12.55L150.34-12.55Q150.34-16.75 148.39-19.48 146.44-22.2 142.44-22.2L142.44-22.2Q138.84-22.2 136.79-19.4 134.74-16.6 134.74-12.55ZM180.43-30.2L180.43-30.2 175.78-30.2 175.78-16.75 180.88-16.75Q184.33-16.75 186.16-18.63 187.98-20.5 187.98-23.45L187.98-23.45Q187.98-30.2 180.43-30.2ZM181.03-13.3L180.63-13.3 175.78-13.3 175.78 0 171.73 0 171.73-33.7 180.18-33.7Q186.03-33.7 189.06-30.95 192.08-28.2 192.08-23.35L192.08-23.35Q191.98-19.85 190.23-17.4 188.48-14.95 185.28-13.95L185.28-13.95 194.13 0 189.28 0 181.03-13.3ZM217.43-5L217.43-1.3Q214.48 0.25 210.23 0.25L210.23 0.25Q204.48 0.25 200.96-3.28 197.43-6.8 197.43-12.6L197.43-12.6Q197.43-18.65 200.58-22.15 203.73-25.65 208.68-25.65L208.68-25.65Q213.43-25.65 216.23-22.6 219.03-19.55 219.03-13.95L219.03-13.95Q219.03-12.35 218.78-11L218.78-11 201.48-11Q201.93-7.25 204.33-5.25 206.73-3.25 210.63-3.25L210.63-3.25Q214.88-3.25 217.43-5L217.43-5ZM208.68-22.2L208.68-22.2Q205.83-22.2 203.83-20.15 201.83-18.1 201.48-14.3L201.48-14.3 215.08-14.3 215.08-15.3Q215.08-18.45 213.38-20.33 211.68-22.2 208.68-22.2ZM232.78-3.05L232.78-3.05Q235.48-3.05 237.08-4.58 238.68-6.1 238.68-8.45L238.68-8.45 238.68-11.7 234.28-11.7Q231.08-11.7 229.48-10.45 227.88-9.2 227.88-7.3 227.88-5.4 229.13-4.23 230.38-3.05 232.78-3.05ZM238.73 0L238.73-3Q236.78 0.25 231.63 0.25L231.63 0.25Q228.08 0.25 225.9-1.85 223.73-3.95 223.73-7.15L223.73-7.15Q223.73-10.8 226.5-12.83 229.28-14.85 234.08-14.85L234.08-14.85 238.68-14.85 238.68-16.15Q238.68-19.15 237.33-20.68 235.98-22.2 232.78-22.2L232.78-22.2Q228.73-22.2 225.58-20.05L225.58-20.05 225.58-24Q228.43-25.75 233.08-25.75L233.08-25.75Q242.63-25.75 242.63-16.05L242.63-16.05 242.63 0 238.73 0ZM252.23-12.4L252.23-12.4Q252.23-8.3 254.23-5.75 256.23-3.2 259.28-3.2L259.28-3.2Q262.38-3.2 264.55-5.5 266.73-7.8 266.73-12.85L266.73-12.85Q266.73-17.65 264.48-19.9 262.23-22.15 259.53-22.15L259.53-22.15Q256.38-22.15 254.3-19.63 252.23-17.1 252.23-12.4ZM270.68-35.35L270.68 0 266.73 0 266.73-3.75Q264.03 0.4 258.93 0.4L258.93 0.4Q253.88 0.4 251-3.35 248.13-7.1 248.13-12.45L248.13-12.45Q248.13-18.4 251.18-22.08 254.23-25.75 259.03-25.75L259.03-25.75Q263.98-25.75 266.73-21.5L266.73-21.5 266.73-35.35 270.68-35.35ZM293.22-6.75L293.22-6.75Q293.22-3.5 290.95-1.6 288.67 0.3 284.72 0.3L284.72 0.3Q280.12 0.3 277.27-1.25L277.27-1.25 277.27-5.1Q280.62-3.1 284.47-3.1L284.47-3.1Q286.77-3.1 287.97-4 289.17-4.9 289.17-6.45L289.17-6.45Q289.17-8.25 287.85-9.25 286.52-10.25 283.42-11.5L283.42-11.5Q280.57-12.6 278.85-14.25 277.12-15.9 277.12-18.7L277.12-18.7Q277.12-21.85 279.5-23.73 281.87-25.6 285.42-25.6L285.42-25.6Q289.37-25.6 291.77-24.5L291.77-24.5 291.77-20.75Q289.47-22.15 285.47-22.15L285.47-22.15Q283.47-22.15 282.3-21.23 281.12-20.3 281.12-18.85L281.12-18.85Q281.12-17.95 281.47-17.28 281.82-16.6 282.85-15.95 283.87-15.3 284.35-15.08 284.82-14.85 286.42-14.15L286.42-14.15Q289.62-12.85 291.42-11.2 293.22-9.55 293.22-6.75Z" opacity="1" transform="matrix(1,0,0,1,0,0)" fill="#ff851b" class="wordmark-text-0" data-fill-palette-color="primary" id="text-0"></path></svg></g></svg></g></svg></g></svg></g><g></g></svg></g></svg></g></svg></g></svg></g><defs></defs></svg><rect width="375.07952880859375" height="110.62348937988281" fill="none" stroke="none" visibility="hidden"></rect></g></svg></g></svg>