<svg xmlns="http://www.w3.org/2000/svg" version="1.1" xmlns:xlink="http://www.w3.org/1999/xlink" xmlns:svgjs="http://svgjs.dev/svgjs" width="2000" height="282" viewBox="0 0 2000 282"><g transform="matrix(1,0,0,1,-1.2121212121212466,0.2676160117471795)"><svg viewBox="0 0 396 56" data-background-color="#ffffff" preserveAspectRatio="xMidYMid meet" height="282" width="2000" xmlns="http://www.w3.org/2000/svg" xmlns:xlink="http://www.w3.org/1999/xlink"><g id="tight-bounds" transform="matrix(1,0,0,1,0.2400000000000091,-0.053143605169651664)"><svg viewBox="0 0 395.52 56.106287210339296" height="56.106287210339296" width="395.52"><g><svg viewBox="0 0 474.2937143504074 67.2806921505931" height="56.106287210339296" width="395.52"><g transform="matrix(1,0,0,1,0,9.298561650335227)"><svg viewBox="0 0 395.52 48.68356884992264" height="48.68356884992264" width="395.52"><g id="textblocktransform"><svg viewBox="0 0 395.52 48.68356884992264" height="48.68356884992264" width="395.52" id="textblock"><g><svg viewBox="0 0 395.52 48.68356884992264" height="48.68356884992264" width="395.52"><g transform="matrix(1,0,0,1,0,0)"><svg width="395.52" viewBox="2.4 -35.35 290.82000000000005 35.800000000000004" height="48.68356884992264" data-palette-color="#ff851b"><path d="M28-5.95L28-1.7Q24.9 0.4 19.5 0.4L19.5 0.4Q11.9 0.4 7.15-4.28 2.4-8.95 2.4-17L2.4-17Q2.4-24.6 7.23-29.38 12.05-34.15 19.35-34.15L19.35-34.15Q24.6-34.15 27.9-32.35L27.9-32.35 27.9-28.2Q25.7-29.35 23.95-29.85 22.2-30.35 19.35-30.35L19.35-30.35Q13.9-30.35 10.28-26.65 6.65-22.95 6.65-17L6.65-17Q6.65-10.8 10.25-7.1 13.85-3.4 19.8-3.4L19.8-3.4Q24.6-3.4 28-5.95L28-5.95ZM53.75-17.35L53.75 0 49.8 0 49.8-16.4Q49.8-19.15 48.37-20.65 46.95-22.15 44.65-22.15L44.65-22.15Q41.85-22.15 39.75-20 37.65-17.85 37.65-13.85L37.65-13.85 37.65 0 33.75 0 33.75-35.35 37.65-35.35 37.65-20.95Q39.9-25.7 45.65-25.7L45.65-25.7Q49.3-25.7 51.52-23.45 53.75-21.2 53.75-17.35L53.75-17.35ZM64.64-13.85L64.64 0 60.7 0 60.74-25.35 64.64-25.35 64.64-20.9Q66.64-25.6 71.55-25.6L71.55-25.6Q72.44-25.6 72.94-25.5L72.94-25.5 72.94-21.6Q71.89-21.95 70.8-21.95L70.8-21.95Q68.14-21.95 66.39-19.5 64.64-17.05 64.64-13.85L64.64-13.85ZM99.34-12.6L99.34-12.6Q99.34-6.95 96.14-3.25 92.94 0.45 87.34 0.45L87.34 0.45Q81.89 0.45 78.72-3.23 75.54-6.9 75.54-12.5L75.54-12.5Q75.54-18.15 78.82-21.93 82.09-25.7 87.34-25.7L87.34-25.7Q93.09-25.7 96.22-22 99.34-18.3 99.34-12.6ZM79.64-12.55L79.64-12.55Q79.64-8.6 81.74-5.83 83.84-3.05 87.34-3.05L87.34-3.05Q91.14-3.05 93.19-5.78 95.24-8.5 95.24-12.55L95.24-12.55Q95.24-16.75 93.29-19.48 91.34-22.2 87.34-22.2L87.34-22.2Q83.74-22.2 81.69-19.4 79.64-16.6 79.64-12.55ZM125.14-17.45L125.14 0 121.19 0 121.19-16.4Q121.19-19.2 119.77-20.68 118.34-22.15 116.04-22.15L116.04-22.15Q113.19-22.15 111.12-19.95 109.04-17.75 109.04-13.85L109.04-13.85 109.04 0 105.14 0 105.14-25.35 109.04-25.35 109.04-20.95Q111.29-25.7 117.04-25.7L117.04-25.7Q120.74-25.7 122.94-23.45 125.14-21.2 125.14-17.45L125.14-17.45ZM154.44-12.6L154.44-12.6Q154.44-6.95 151.24-3.25 148.04 0.45 142.44 0.45L142.44 0.45Q136.99 0.45 133.81-3.23 130.64-6.9 130.64-12.5L130.64-12.5Q130.64-18.15 133.91-21.93 137.19-25.7 142.44-25.7L142.44-25.7Q148.19-25.7 151.31-22 154.44-18.3 154.44-12.6ZM134.74-12.55L134.74-12.55Q134.74-8.6 136.84-5.83 138.94-3.05 142.44-3.05L142.44-3.05Q146.24-3.05 148.29-5.78 150.34-8.5 150.34-12.55L150.34-12.55Q150.34-16.75 148.39-19.48 146.44-22.2 142.44-22.2L142.44-22.2Q138.84-22.2 136.79-19.4 134.74-16.6 134.74-12.55ZM180.43-30.2L180.43-30.2 175.78-30.2 175.78-16.75 180.88-16.75Q184.33-16.75 186.16-18.63 187.98-20.5 187.98-23.45L187.98-23.45Q187.98-30.2 180.43-30.2ZM181.03-13.3L180.63-13.3 175.78-13.3 175.78 0 171.73 0 171.73-33.7 180.18-33.7Q186.03-33.7 189.06-30.95 192.08-28.2 192.08-23.35L192.08-23.35Q191.98-19.85 190.23-17.4 188.48-14.95 185.28-13.95L185.28-13.95 194.13 0 189.28 0 181.03-13.3ZM217.43-5L217.43-1.3Q214.48 0.25 210.23 0.25L210.23 0.25Q204.48 0.25 200.96-3.28 197.43-6.8 197.43-12.6L197.43-12.6Q197.43-18.65 200.58-22.15 203.73-25.65 208.68-25.65L208.68-25.65Q213.43-25.65 216.23-22.6 219.03-19.55 219.03-13.95L219.03-13.95Q219.03-12.35 218.78-11L218.78-11 201.48-11Q201.93-7.25 204.33-5.25 206.73-3.25 210.63-3.25L210.63-3.25Q214.88-3.25 217.43-5L217.43-5ZM208.68-22.2L208.68-22.2Q205.83-22.2 203.83-20.15 201.83-18.1 201.48-14.3L201.48-14.3 215.08-14.3 215.08-15.3Q215.08-18.45 213.38-20.33 211.68-22.2 208.68-22.2ZM232.78-3.05L232.78-3.05Q235.48-3.05 237.08-4.58 238.68-6.1 238.68-8.45L238.68-8.45 238.68-11.7 234.28-11.7Q231.08-11.7 229.48-10.45 227.88-9.2 227.88-7.3 227.88-5.4 229.13-4.23 230.38-3.05 232.78-3.05ZM238.73 0L238.73-3Q236.78 0.25 231.63 0.25L231.63 0.25Q228.08 0.25 225.9-1.85 223.73-3.95 223.73-7.15L223.73-7.15Q223.73-10.8 226.5-12.83 229.28-14.85 234.08-14.85L234.08-14.85 238.68-14.85 238.68-16.15Q238.68-19.15 237.33-20.68 235.98-22.2 232.78-22.2L232.78-22.2Q228.73-22.2 225.58-20.05L225.58-20.05 225.58-24Q228.43-25.75 233.08-25.75L233.08-25.75Q242.63-25.75 242.63-16.05L242.63-16.05 242.63 0 238.73 0ZM252.23-12.4L252.23-12.4Q252.23-8.3 254.23-5.75 256.23-3.2 259.28-3.2L259.28-3.2Q262.38-3.2 264.55-5.5 266.73-7.8 266.73-12.85L266.73-12.85Q266.73-17.65 264.48-19.9 262.23-22.15 259.53-22.15L259.53-22.15Q256.38-22.15 254.3-19.63 252.23-17.1 252.23-12.4ZM270.68-35.35L270.68 0 266.73 0 266.73-3.75Q264.03 0.4 258.93 0.4L258.93 0.4Q253.88 0.4 251-3.35 248.13-7.1 248.13-12.45L248.13-12.45Q248.13-18.4 251.18-22.08 254.23-25.75 259.03-25.75L259.03-25.75Q263.98-25.75 266.73-21.5L266.73-21.5 266.73-35.35 270.68-35.35ZM293.22-6.75L293.22-6.75Q293.22-3.5 290.95-1.6 288.67 0.3 284.72 0.3L284.72 0.3Q280.12 0.3 277.27-1.25L277.27-1.25 277.27-5.1Q280.62-3.1 284.47-3.1L284.47-3.1Q286.77-3.1 287.97-4 289.17-4.9 289.17-6.45L289.17-6.45Q289.17-8.25 287.85-9.25 286.52-10.25 283.42-11.5L283.42-11.5Q280.57-12.6 278.85-14.25 277.12-15.9 277.12-18.7L277.12-18.7Q277.12-21.85 279.5-23.73 281.87-25.6 285.42-25.6L285.42-25.6Q289.37-25.6 291.77-24.5L291.77-24.5 291.77-20.75Q289.47-22.15 285.47-22.15L285.47-22.15Q283.47-22.15 282.3-21.23 281.12-20.3 281.12-18.85L281.12-18.85Q281.12-17.95 281.47-17.28 281.82-16.6 282.85-15.95 283.87-15.3 284.35-15.08 284.82-14.85 286.42-14.15L286.42-14.15Q289.62-12.85 291.42-11.2 293.22-9.55 293.22-6.75Z" opacity="1" transform="matrix(1,0,0,1,0,0)" fill="#ff851b" class="wordmark-text-0" data-fill-palette-color="primary" id="text-0"></path></svg></g></svg></g></svg></g></svg></g><g transform="matrix(1,0,0,1,407.0130221998143,0)"><svg viewBox="0 0 67.2806921505931 67.2806921505931" height="67.2806921505931" width="67.2806921505931"><g data-palette-color="#e8772e"><rect width="18.390055854495447" height="67.2806921505931" fill="#e8772e" stroke="transparent" data-fill-palette-color="accent" x="0" fill-opacity="1"></rect><rect width="18.390055854495447" height="67.2806921505931" fill="#e8772e" stroke="transparent" data-fill-palette-color="accent" x="22.426897383531035" fill-opacity="0.75"></rect><rect width="18.390055854495447" height="67.2806921505931" fill="#e8772e" stroke="transparent" data-fill-palette-color="accent" x="44.85379476706207" fill-opacity="0.5"></rect></g></svg></g></svg></g><defs></defs></svg><rect width="395.52" height="56.106287210339296" fill="none" stroke="none" visibility="hidden"></rect></g></svg></g></svg>